<svg width="43" height="43" viewBox="0 0 43 43" fill="none" xmlns="http://www.w3.org/2000/svg">
<path d="M21.5 43C15.7978 43 10.3292 40.7348 6.2972 36.7028C2.26517 32.6708 0 27.2022 0 21.5C0 15.7978 2.26517 10.3292 6.2972 6.2972C10.3292 2.26517 15.7978 0 21.5 0C27.2022 0 32.6708 2.26517 36.7028 6.2972C40.7348 10.3292 43 15.7978 43 21.5C43 27.2022 40.7348 32.6708 36.7028 36.7028C32.6708 40.7348 27.2022 43 21.5 43ZM23.7763 21.1103C25.2659 20.5744 26.5186 19.5302 27.3139 18.1615C28.1092 16.7928 28.3961 15.1873 28.1241 13.6279C27.8521 12.0684 27.0387 10.6549 25.827 9.63624C24.6153 8.61758 23.083 8.05908 21.5 8.05908C19.917 8.05908 18.3847 8.61758 17.173 9.63624C15.9613 10.6549 15.1479 12.0684 14.8759 13.6279C14.6039 15.1873 14.8908 16.7928 15.6861 18.1615C16.4814 19.5302 17.7341 20.5744 19.2237 21.1103C14.7033 22.2014 10.75 26.2703 10.75 29.5625C10.75 30.6241 11.1397 32.2366 13.4375 32.2366H29.5625C31.8603 32.2366 32.25 30.6241 32.25 29.5625C32.25 26.273 28.2994 22.1987 23.7763 21.1103Z" fill="#A2A2A2"/>
</svg>
